<svg xmlns="http://www.w3.org/2000/svg" viewBox="0 0 192 192" width="192" height="192">
  <path fill="#FCA5A5" fill-rule="evenodd"
        d="M149.83 80.57 L170.85 82.81 L170.85 109.19 L149.83 111.43
           A 56 56 0 0 1 144.98 123.15 L158.26 139.59 L139.59 158.26 L123.15 144.98
           A 56 56 0 0 1 111.43 149.83 L109.19 170.85 L82.81 170.85 L80.57 149.83
           A 56 56 0 0 1 68.85 144.98 L52.41 158.26 L33.74 139.59 L47.02 123.15
           A 56 56 0 0 1 42.17 111.43 L21.15 109.19 L21.15 82.81 L42.17 80.57
           A 56 56 0 0 1 47.02 68.85 L33.74 52.41 L52.41 33.74 L68.85 47.02
           A 56 56 0 0 1 80.57 42.17 L82.81 21.15 L109.19 21.15 L111.43 42.17
           A 56 56 0 0 1 123.15 47.02 L139.59 33.74 L158.26 52.41 L144.98 68.85
           A 56 56 0 0 1 149.83 80.57 Z
           M 60 96 A 36 36 0 1 0 132 96 A 36 36 0 1 0 60 96 Z"/>
  <path fill="none" stroke="#C0C0C0" stroke-width="13" stroke-linejoin="round"
        d="M149.83 80.57 L170.85 82.81 L170.85 109.19 L149.83 111.43
           A 56 56 0 0 1 144.98 123.15 L158.26 139.59 L139.59 158.26 L123.15 144.98
           A 56 56 0 0 1 111.43 149.83 L109.19 170.85 L82.81 170.85 L80.57 149.83
           A 56 56 0 0 1 68.85 144.98 L52.41 158.26 L33.74 139.59 L47.02 123.15
           A 56 56 0 0 1 42.17 111.43 L21.15 109.19 L21.15 82.81 L42.17 80.57
           A 56 56 0 0 1 47.02 68.85 L33.74 52.41 L52.41 33.74 L68.85 47.02
           A 56 56 0 0 1 80.57 42.17 L82.81 21.15 L109.19 21.15 L111.43 42.17
           A 56 56 0 0 1 123.15 47.02 L139.59 33.74 L158.26 52.41 L144.98 68.85
           A 56 56 0 0 1 149.83 80.57 Z"/>
  <circle cx="96" cy="96" r="17" fill="#F42A41"/>
</svg>
